{"asset":{"generator":"Khronos glTF Blender I/O v1.7.33","version":"2.0","copyright":"Ultimate Monsters by Quaternius, CC0 1.0; colour treatment by Bomberfan"},"scene":0,"scenes":[{"name":"Scene","nodes":[14]}],"nodes":[{"name":"Head","rotation":[0.5716656446456909,-0.00022643417469225824,-0.00015693658497184515,0.8204866647720337],"scale":[0.9999998211860657,0.9999999403953552,0.9999998807907104],"translation":[9.869189493416641e-11,0.44923335313796997,-6.051564582776336e-08]},{"children":[0],"name":"Neck","rotation":[0.23638544976711273,0.00018450994684826583,-0.0034135181922465563,0.9716534614562988],"scale":[1,1.0000001192092896,1.0000001192092896],"translation":[1.6249018797154235e-10,0.38552865386009216,-6.175026712185172e-09]},{"name":"Wing4.L","rotation":[-0.0639018639922142,0.0631355419754982,0.028827203437685966,0.9955397844314575],"scale":[0.9999998807907104,0.9999998807907104,1],"translation":[-4.820395105298303e-08,0.42042040824890137,-2.2619101969212352e-07]},{"children":[2],"name":"Wing3.L","rotation":[0.0757426917552948,-0.002228245371952653,0.03657321631908417,0.9964540004730225],"scale":[1.0000001192092896,1,1.0000001192092896],"translation":[8.067800649769197e-08,0.44027653336524963,4.641538708938242e-08]},{"children":[3],"name":"Wing2.L","rotation":[0.09973214566707611,-0.6955780386924744,-0.12116173654794693,0.7011023759841919],"scale":[1.000000238418579,1.000000238418579,1],"translation":[1.3769206930192013e-07,0.7025022506713867,-2.6767143168626717e-08]},{"children":[4],"name":"Wing1.L","rotation":[-0.2630976736545563,0.1918511837720871,-0.5517642498016357,0.7678079605102539],"scale":[1.0000001192092896,1.0000003576278687,1.0000001192092896],"translation":[0.38414353132247925,0.5535898804664612,-0.1755506694316864]},{"name":"Wing4.R","rotation":[-0.06390191614627838,-0.0631355494260788,-0.028827250003814697,0.9955397844314575],"scale":[1,1,1.0000001192092896],"translation":[-1.042434050191332e-07,0.4204201102256775,-2.3638886403887227e-08]},{"children":[6],"name":"Wing3.R","rotation":[0.07574263215065002,0.002228259574621916,-0.036573268473148346,0.9964540600776672],"scale":[0.9999997615814209,0.9999997019767761,0.9999999403953552],"translation":[-4.0817102586743204e-08,0.4402768611907959,-9.537702538864323e-08]},{"children":[7],"name":"Wing2.R","rotation":[0.0997321829199791,0.6955780386924744,0.12116171419620514,0.7011023759841919],"scale":[1.0000001192092896,1.0000001192092896,0.9999998807907104],"translation":[1.0407558193037403e-07,0.7025024890899658,1.1471902894300001e-07]},{"children":[8],"name":"Wing1.R","rotation":[-0.26325997710227966,-0.18861083686351776,0.547243058681488,0.7717804908752441],"scale":[1.0000001192092896,1.0000001192092896,1.0000001192092896],"translation":[-0.38132238388061523,0.5586014986038208,-0.17404188215732574]},{"children":[1,5,9],"name":"Torso","rotation":[-0.014627180062234402,-0.0009377922979183495,0.0032875575125217438,0.9998871684074402],"scale":[0.9999999403953552,0.9999999403953552,0.9999999403953552],"translation":[0.003197183832526207,1.4315153360366821,-0.11103946715593338]},{"name":"Body1","rotation":[-0.9996196031570435,0.012443873099982738,0.008295722305774689,0.023173369467258453],"scale":[1.0000048875808716,0.9999999403953552,1.0000163316726685],"translation":[0.003197186393663287,1.434637188911438,-0.1112804114818573]},{"children":[10,11],"name":"Root","rotation":[0,2.384185791015625e-07,0,1],"translation":[-0.0013114691246300936,-0.0024153697304427624,-0.00011468419688753784]},{"mesh":0,"name":"Goleling_Evolved","skin":0},{"children":[13,12],"name":"CharacterArmature"}],"animations":[{"channels":[{"sampler":0,"target":{"node":10,"path":"translation"}},{"sampler":1,"target":{"node":10,"path":"rotation"}},{"sampler":2,"target":{"node":1,"path":"translation"}},{"sampler":3,"target":{"node":1,"path":"rotation"}},{"sampler":4,"target":{"node":0,"path":"translation"}},{"sampler":5,"target":{"node":0,"path":"rotation"}},{"sampler":6,"target":{"node":5,"path":"translation"}},{"sampler":7,"target":{"node":5,"path":"rotation"}},{"sampler":8,"target":{"node":4,"path":"translation"}},{"sampler":9,"target":{"node":4,"path":"rotation"}},{"sampler":10,"target":{"node":3,"path":"translation"}},{"sampler":11,"target":{"node":3,"path":"rotation"}},{"sampler":12,"target":{"node":2,"path":"translation"}},{"sampler":13,"target":{"node":2,"path":"rotation"}},{"sampler":14,"target":{"node":9,"path":"translation"}},{"sampler":15,"target":{"node":9,"path":"rotation"}},{"sampler":16,"target":{"node":8,"path":"translation"}},{"sampler":17,"target":{"node":8,"path":"rotation"}},{"sampler":18,"target":{"node":7,"path":"translation"}},{"sampler":19,"target":{"node":7,"path":"rotation"}},{"sampler":20,"target":{"node":6,"path":"translation"}},{"sampler":21,"target":{"node":6,"path":"rotation"}},{"sampler":22,"target":{"node":11,"path":"translation"}},{"sampler":23,"target":{"node":11,"path":"rotation"}}],"name":"Death","samplers":[{"input":7,"interpolation":"LINEAR","output":8},{"input":7,"interpolation":"LINEAR","output":9},{"input":10,"interpolation":"LINEAR","output":11},{"input":7,"interpolation":"LINEAR","output":12},{"input":10,"interpolation":"LINEAR","output":13},{"input":7,"interpolation":"LINEAR","output":14},{"input":10,"interpolation":"LINEAR","output":15},{"input":7,"interpolation":"LINEAR","output":16},{"input":10,"interpolation":"LINEAR","output":17},{"input":7,"interpolation":"LINEAR","output":18},{"input":10,"interpolation":"LINEAR","output":19},{"input":7,"interpolation":"LINEAR","output":20},{"input":10,"interpolation":"LINEAR","output":21},{"input":10,"interpolation":"LINEAR","output":22},{"input":10,"interpolation":"LINEAR","output":23},{"input":7,"interpolation":"LINEAR","output":24},{"input":10,"interpolation":"LINEAR","output":25},{"input":7,"interpolation":"LINEAR","output":26},{"input":10,"interpolation":"LINEAR","output":27},{"input":7,"interpolation":"LINEAR","output":28},{"input":10,"interpolation":"LINEAR","output":29},{"input":10,"interpolation":"LINEAR","output":30},{"input":7,"interpolation":"LINEAR","output":31},{"input":7,"interpolation":"LINEAR","output":32}]},{"channels":[{"sampler":0,"target":{"node":10,"path":"translation"}},{"sampler":1,"target":{"node":10,"path":"rotation"}},{"sampler":2,"target":{"node":1,"path":"translation"}},{"sampler":3,"target":{"node":1,"path":"rotation"}},{"sampler":4,"target":{"node":0,"path":"translation"}},{"sampler":5,"target":{"node":0,"path":"rotation"}},{"sampler":6,"target":{"node":5,"path":"translation"}},{"sampler":7,"target":{"node":5,"path":"rotation"}},{"sampler":8,"target":{"node":4,"path":"translation"}},{"sampler":9,"target":{"node":4,"path":"rotation"}},{"sampler":10,"target":{"node":3,"path":"translation"}},{"sampler":11,"target":{"node":3,"path":"rotation"}},{"sampler":12,"target":{"node":2,"path":"translation"}},{"sampler":13,"target":{"node":2,"path":"rotation"}},{"sampler":14,"target":{"node":9,"path":"translation"}},{"sampler":15,"target":{"node":9,"path":"rotation"}},{"sampler":16,"target":{"node":8,"path":"translation"}},{"sampler":17,"target":{"node":8,"path":"rotation"}},{"sampler":18,"target":{"node":7,"path":"translation"}},{"sampler":19,"target":{"node":7,"path":"rotation"}},{"sampler":20,"target":{"node":6,"path":"translation"}},{"sampler":21,"target":{"node":6,"path":"rotation"}},{"sampler":22,"target":{"node":11,"path":"translation"}},{"sampler":23,"target":{"node":11,"path":"rotation"}}],"name":"Fast_Flying","samplers":[{"input":33,"interpolation":"LINEAR","output":34},{"input":35,"interpolation":"LINEAR","output":36},{"input":35,"interpolation":"LINEAR","output":37},{"input":35,"interpolation":"LINEAR","output":38},{"input":35,"interpolation":"LINEAR","output":39},{"input":33,"interpolation":"LINEAR","output":40},{"input":35,"interpolation":"LINEAR","output":41},{"input":33,"interpolation":"LINEAR","output":42},{"input":35,"interpolation":"LINEAR","output":43},{"input":33,"interpolation":"LINEAR","output":44},{"input":35,"interpolation":"LINEAR","output":45},{"input":33,"interpolation":"LINEAR","output":46},{"input":35,"interpolation":"LINEAR","output":47},{"input":35,"interpolation":"LINEAR","output":48},{"input":35,"interpolation":"LINEAR","output":49},{"input":33,"interpolation":"LINEAR","output":50},{"input":35,"interpolation":"LINEAR","output":51},{"input":33,"interpolation":"LINEAR","output":52},{"input":35,"interpolation":"LINEAR","output":53},{"input":33,"interpolation":"LINEAR","output":54},{"input":35,"interpolation":"LINEAR","output":55},{"input":35,"interpolation":"LINEAR","output":56},{"input":33,"interpolation":"LINEAR","output":57},{"input":35,"interpolation":"LINEAR","output":58}]},{"channels":[{"sampler":0,"target":{"node":10,"path":"translation"}},{"sampler":1,"target":{"node":10,"path":"rotation"}},{"sampler":2,"target":{"node":1,"path":"translation"}},{"sampler":3,"target":{"node":1,"path":"rotation"}},{"sampler":4,"target":{"node":0,"path":"translation"}},{"sampler":5,"target":{"node":0,"path":"rotation"}},{"sampler":6,"target":{"node":5,"path":"translation"}},{"sampler":7,"target":{"node":5,"path":"rotation"}},{"sampler":8,"target":{"node":4,"path":"translation"}},{"sampler":9,"target":{"node":4,"path":"rotation"}},{"sampler":10,"target":{"node":3,"path":"translation"}},{"sampler":11,"target":{"node":3,"path":"rotation"}},{"sampler":12,"target":{"node":2,"path":"translation"}},{"sampler":13,"target":{"node":2,"path":"rotation"}},{"sampler":14,"target":{"node":9,"path":"translation"}},{"sampler":15,"target":{"node":9,"path":"rotation"}},{"sampler":16,"target":{"node":8,"path":"translation"}},{"sampler":17,"target":{"node":8,"path":"rotation"}},{"sampler":18,"target":{"node":7,"path":"translation"}},{"sampler":19,"target":{"node":7,"path":"rotation"}},{"sampler":20,"target":{"node":6,"path":"translation"}},{"sampler":21,"target":{"node":6,"path":"rotation"}},{"sampler":22,"target":{"node":11,"path":"translation"}},{"sampler":23,"target":{"node":11,"path":"rotation"}}],"name":"Flying_Idle","samplers":[{"input":59,"interpolation":"LINEAR","output":60},{"input":61,"interpolation":"LINEAR","output":62},{"input":61,"interpolation":"LINEAR","output":63},{"input":61,"interpolation":"LINEAR","output":64},{"input":61,"interpolation":"LINEAR","output":65},{"input":59,"interpolation":"LINEAR","output":66},{"input":61,"interpolation":"LINEAR","output":67},{"input":59,"interpolation":"LINEAR","output":68},{"input":61,"interpolation":"LINEAR","output":69},{"input":59,"interpolation":"LINEAR","output":70},{"input":61,"interpolation":"LINEAR","output":71},{"input":59,"interpolation":"LINEAR","output":72},{"input":61,"interpolation":"LINEAR","output":73},{"input":61,"interpolation":"LINEAR","output":74},{"input":61,"interpolation":"LINEAR","output":75},{"input":59,"interpolation":"LINEAR","output":76},{"input":61,"interpolation":"LINEAR","output":77},{"input":59,"interpolation":"LINEAR","output":78},{"input":61,"interpolation":"LINEAR","output":79},{"input":59,"interpolation":"LINEAR","output":80},{"input":61,"interpolation":"LINEAR","output":81},{"input":61,"interpolation":"LINEAR","output":82},{"input":59,"interpolation":"LINEAR","output":83},{"input":61,"interpolation":"LINEAR","output":84}]},{"channels":[{"sampler":0,"target":{"node":10,"path":"translation"}},{"sampler":1,"target":{"node":10,"path":"rotation"}},{"sampler":2,"target":{"node":1,"path":"translation"}},{"sampler":3,"target":{"node":1,"path":"rotation"}},{"sampler":4,"target":{"node":0,"path":"translation"}},{"sampler":5,"target":{"node":0,"path":"rotation"}},{"sampler":6,"target":{"node":5,"path":"translation"}},{"sampler":7,"target":{"node":5,"path":"rotation"}},{"sampler":8,"target":{"node":4,"path":"translation"}},{"sampler":9,"target":{"node":4,"path":"rotation"}},{"sampler":10,"target":{"node":3,"path":"translation"}},{"sampler":11,"target":{"node":3,"path":"rotation"}},{"sampler":12,"target":{"node":2,"path":"translation"}},{"sampler":13,"target":{"node":2,"path":"rotation"}},{"sampler":14,"target":{"node":9,"path":"translation"}},{"sampler":15,"target":{"node":9,"path":"rotation"}},{"sampler":16,"target":{"node":8,"path":"translation"}},{"sampler":17,"target":{"node":8,"path":"rotation"}},{"sampler":18,"target":{"node":7,"path":"translation"}},{"sampler":19,"target":{"node":7,"path":"rotation"}},{"sampler":20,"target":{"node":6,"path":"translation"}},{"sampler":21,"target":{"node":6,"path":"rotation"}},{"sampler":22,"target":{"node":11,"path":"translation"}},{"sampler":23,"target":{"node":11,"path":"rotation"}}],"name":"Headbutt","samplers":[{"input":59,"interpolation":"LINEAR","output":85},{"input":59,"interpolation":"LINEAR","output":86},{"input":61,"interpolation":"LINEAR","output":87},{"input":61,"interpolation":"LINEAR","output":88},{"input":61,"interpolation":"LINEAR","output":89},{"input":59,"interpolation":"LINEAR","output":90},{"input":61,"interpolation":"LINEAR","output":91},{"input":59,"interpolation":"LINEAR","output":92},{"input":61,"interpolation":"LINEAR","output":93},{"input":59,"interpolation":"LINEAR","output":94},{"input":61,"interpolation":"LINEAR","output":95},{"input":59,"interpolation":"LINEAR","output":96},{"input":61,"interpolation":"LINEAR","output":97},{"input":61,"interpolation":"LINEAR","output":98},{"input":61,"interpolation":"LINEAR","output":99},{"input":59,"interpolation":"LINEAR","output":100},{"input":61,"interpolation":"LINEAR","output":101},{"input":59,"interpolation":"LINEAR","output":102},{"input":61,"interpolation":"LINEAR","output":103},{"input":59,"interpolation":"LINEAR","output":104},{"input":61,"interpolation":"LINEAR","output":105},{"input":61,"interpolation":"LINEAR","output":106},{"input":59,"interpolation":"LINEAR","output":107},{"input":59,"interpolation":"LINEAR","output":108}]},{"channels":[{"sampler":0,"target":{"node":10,"path":"translation"}},{"sampler":1,"target":{"node":10,"path":"rotation"}},{"sampler":2,"target":{"node":1,"path":"translation"}},{"sampler":3,"target":{"node":1,"path":"rotation"}},{"sampler":4,"target":{"node":0,"path":"translation"}},{"sampler":5,"target":{"node":0,"path":"rotation"}},{"sampler":6,"target":{"node":5,"path":"translation"}},{"sampler":7,"target":{"node":5,"path":"rotation"}},{"sampler":8,"target":{"node":4,"path":"translation"}},{"sampler":9,"target":{"node":4,"path":"rotation"}},{"sampler":10,"target":{"node":3,"path":"translation"}},{"sampler":11,"target":{"node":3,"path":"rotation"}},{"sampler":12,"target":{"node":2,"path":"translation"}},{"sampler":13,"target":{"node":2,"path":"rotation"}},{"sampler":14,"target":{"node":9,"path":"translation"}},{"sampler":15,"target":{"node":9,"path":"rotation"}},{"sampler":16,"target":{"node":8,"path":"translation"}},{"sampler":17,"target":{"node":8,"path":"rotation"}},{"sampler":18,"target":{"node":7,"path":"translation"}},{"sampler":19,"target":{"node":7,"path":"rotation"}},{"sampler":20,"target":{"node":6,"path":"translation"}},{"sampler":21,"target":{"node":6,"path":"rotation"}},{"sampler":22,"target":{"node":11,"path":"translation"}},{"sampler":23,"target":{"node":11,"path":"rotation"}}],"name":"HitReact","samplers":[{"input":109,"interpolation":"LINEAR","output":110},{"input":109,"interpolation":"LINEAR","output":111},{"input":112,"interpolation":"LINEAR","output":113},{"input":109,"interpolation":"LINEAR","output":114},{"input":112,"interpolation":"LINEAR","output":115},{"input":109,"interpolation":"LINEAR","output":116},{"input":112,"interpolation":"LINEAR","output":117},{"input":109,"interpolation":"LINEAR","output":118},{"input":112,"interpolation":"LINEAR","output":119},{"input":109,"interpolation":"LINEAR","output":120},{"input":112,"interpolation":"LINEAR","output":121},{"input":109,"interpolation":"LINEAR","output":122},{"input":112,"interpolation":"LINEAR","output":123},{"input":112,"interpolation":"LINEAR","output":124},{"input":112,"interpolation":"LINEAR","output":125},{"input":109,"interpolation":"LINEAR","output":126},{"input":112,"interpolation":"LINEAR","output":127},{"input":109,"interpolation":"LINEAR","output":128},{"input":112,"interpolation":"LINEAR","output":129},{"input":109,"interpolation":"LINEAR","output":130},{"input":112,"interpolation":"LINEAR","output":131},{"input":112,"interpolation":"LINEAR","output":132},{"input":109,"interpolation":"LINEAR","output":133},{"input":112,"interpolation":"LINEAR","output":134}]},{"channels":[{"sampler":0,"target":{"node":10,"path":"translation"}},{"sampler":1,"target":{"node":10,"path":"rotation"}},{"sampler":2,"target":{"node":1,"path":"translation"}},{"sampler":3,"target":{"node":1,"path":"rotation"}},{"sampler":4,"target":{"node":0,"path":"translation"}},{"sampler":5,"target":{"node":0,"path":"rotation"}},{"sampler":6,"target":{"node":5,"path":"translation"}},{"sampler":7,"target":{"node":5,"path":"rotation"}},{"sampler":8,"target":{"node":4,"path":"translation"}},{"sampler":9,"target":{"node":4,"path":"rotation"}},{"sampler":10,"target":{"node":3,"path":"translation"}},{"sampler":11,"target":{"node":3,"path":"rotation"}},{"sampler":12,"target":{"node":2,"path":"translation"}},{"sampler":13,"target":{"node":2,"path":"rotation"}},{"sampler":14,"target":{"node":9,"path":"translation"}},{"sampler":15,"target":{"node":9,"path":"rotation"}},{"sampler":16,"target":{"node":8,"path":"translation"}},{"sampler":17,"target":{"node":8,"path":"rotation"}},{"sampler":18,"target":{"node":7,"path":"translation"}},{"sampler":19,"target":{"node":7,"path":"rotation"}},{"sampler":20,"target":{"node":6,"path":"translation"}},{"sampler":21,"target":{"node":6,"path":"rotation"}},{"sampler":22,"target":{"node":11,"path":"translation"}},{"sampler":23,"target":{"node":11,"path":"rotation"}}],"name":"No","samplers":[{"input":59,"interpolation":"LINEAR","output":135},{"input":61,"interpolation":"LINEAR","output":136},{"input":61,"interpolation":"LINEAR","output":137},{"input":59,"interpolation":"LINEAR","output":138},{"input":61,"interpolation":"LINEAR","output":139},{"input":59,"interpolation":"LINEAR","output":140},{"input":61,"interpolation":"LINEAR","output":141},{"input":59,"interpolation":"LINEAR","output":142},{"input":61,"interpolation":"LINEAR","output":143},{"input":59,"interpolation":"LINEAR","output":144},{"input":61,"interpolation":"LINEAR","output":145},{"input":59,"interpolation":"LINEAR","output":146},{"input":61,"interpolation":"LINEAR","output":147},{"input":61,"interpolation":"LINEAR","output":148},{"input":61,"interpolation":"LINEAR","output":149},{"input":59,"interpolation":"LINEAR","output":150},{"input":61,"interpolation":"LINEAR","output":151},{"input":59,"interpolation":"LINEAR","output":152},{"input":61,"interpolation":"LINEAR","output":153},{"input":59,"interpolation":"LINEAR","output":154},{"input":61,"interpolation":"LINEAR","output":155},{"input":61,"interpolation":"LINEAR","output":156},{"input":59,"interpolation":"LINEAR","output":157},{"input":61,"interpolation":"LINEAR","output":158}]},{"channels":[{"sampler":0,"target":{"node":10,"path":"translation"}},{"sampler":1,"target":{"node":10,"path":"rotation"}},{"sampler":2,"target":{"node":1,"path":"translation"}},{"sampler":3,"target":{"node":1,"path":"rotation"}},{"sampler":4,"target":{"node":0,"path":"translation"}},{"sampler":5,"target":{"node":0,"path":"rotation"}},{"sampler":6,"target":{"node":5,"path":"translation"}},{"sampler":7,"target":{"node":5,"path":"rotation"}},{"sampler":8,"target":{"node":4,"path":"translation"}},{"sampler":9,"target":{"node":4,"path":"rotation"}},{"sampler":10,"target":{"node":3,"path":"translation"}},{"sampler":11,"target":{"node":3,"path":"rotation"}},{"sampler":12,"target":{"node":2,"path":"translation"}},{"sampler":13,"target":{"node":2,"path":"rotation"}},{"sampler":14,"target":{"node":9,"path":"translation"}},{"sampler":15,"target":{"node":9,"path":"rotation"}},{"sampler":16,"target":{"node":8,"path":"translation"}},{"sampler":17,"target":{"node":8,"path":"rotation"}},{"sampler":18,"target":{"node":7,"path":"translation"}},{"sampler":19,"target":{"node":7,"path":"rotation"}},{"sampler":20,"target":{"node":6,"path":"translation"}},{"sampler":21,"target":{"node":6,"path":"rotation"}},{"sampler":22,"target":{"node":11,"path":"translation"}},{"sampler":23,"target":{"node":11,"path":"rotation"}}],"name":"Punch","samplers":[{"input":59,"interpolation":"LINEAR","output":159},{"input":59,"interpolation":"LINEAR","output":160},{"input":61,"interpolation":"LINEAR","output":161},{"input":61,"interpolation":"LINEAR","output":162},{"input":61,"interpolation":"LINEAR","output":163},{"input":59,"interpolation":"LINEAR","output":164},{"input":61,"interpolation":"LINEAR","output":165},{"input":59,"interpolation":"LINEAR","output":166},{"input":61,"interpolation":"LINEAR","output":167},{"input":59,"interpolation":"LINEAR","output":168},{"input":61,"interpolation":"LINEAR","output":169},{"input":59,"interpolation":"LINEAR","output":170},{"input":61,"interpolation":"LINEAR","output":171},{"input":61,"interpolation":"LINEAR","output":172},{"input":61,"interpolation":"LINEAR","output":173},{"input":59,"interpolation":"LINEAR","output":174},{"input":61,"interpolation":"LINEAR","output":175},{"input":59,"interpolation":"LINEAR","output":176},{"input":61,"interpolation":"LINEAR","output":177},{"input":59,"interpolation":"LINEAR","output":178},{"input":61,"interpolation":"LINEAR","output":179},{"input":61,"interpolation":"LINEAR","output":180},{"input":59,"interpolation":"LINEAR","output":181},{"input":59,"interpolation":"LINEAR","output":182}]},{"channels":[{"sampler":0,"target":{"node":10,"path":"translation"}},{"sampler":1,"target":{"node":10,"path":"rotation"}},{"sampler":2,"target":{"node":1,"path":"translation"}},{"sampler":3,"target":{"node":1,"path":"rotation"}},{"sampler":4,"target":{"node":0,"path":"translation"}},{"sampler":5,"target":{"node":0,"path":"rotation"}},{"sampler":6,"target":{"node":5,"path":"translation"}},{"sampler":7,"target":{"node":5,"path":"rotation"}},{"sampler":8,"target":{"node":4,"path":"translation"}},{"sampler":9,"target":{"node":4,"path":"rotation"}},{"sampler":10,"target":{"node":3,"path":"translation"}},{"sampler":11,"target":{"node":3,"path":"rotation"}},{"sampler":12,"target":{"node":2,"path":"translation"}},{"sampler":13,"target":{"node":2,"path":"rotation"}},{"sampler":14,"target":{"node":9,"path":"translation"}},{"sampler":15,"target":{"node":9,"path":"rotation"}},{"sampler":16,"target":{"node":8,"path":"translation"}},{"sampler":17,"target":{"node":8,"path":"rotation"}},{"sampler":18,"target":{"node":7,"path":"translation"}},{"sampler":19,"target":{"node":7,"path":"rotation"}},{"sampler":20,"target":{"node":6,"path":"translation"}},{"sampler":21,"target":{"node":6,"path":"rotation"}},{"sampler":22,"target":{"node":11,"path":"translation"}},{"sampler":23,"target":{"node":11,"path":"rotation"}}],"name":"Yes","samplers":[{"input":59,"interpolation":"LINEAR","output":183},{"input":61,"interpolation":"LINEAR","output":184},{"input":61,"interpolation":"LINEAR","output":185},{"input":59,"interpolation":"LINEAR","output":186},{"input":61,"interpolation":"LINEAR","output":187},{"input":59,"interpolation":"LINEAR","output":188},{"input":61,"interpolation":"LINEAR","output":189},{"input":59,"interpolation":"LINEAR","output":190},{"input":61,"interpolation":"LINEAR","output":191},{"input":59,"interpolation":"LINEAR","output":192},{"input":61,"interpolation":"LINEAR","output":193},{"input":59,"interpolation":"LINEAR","output":194},{"input":61,"interpolation":"LINEAR","output":195},{"input":61,"interpolation":"LINEAR","output":196},{"input":61,"interpolation":"LINEAR","output":197},{"input":59,"interpolation":"LINEAR","output":198},{"input":61,"interpolation":"LINEAR","output":199},{"input":59,"interpolation":"LINEAR","output":200},{"input":61,"interpolation":"LINEAR","output":201},{"input":59,"interpolation":"LINEAR","output":202},{"input":61,"interpolation":"LINEAR","output":203},{"input":61,"interpolation":"LINEAR","output":204},{"input":59,"interpolation":"LINEAR","output":205},{"input":61,"interpolation":"LINEAR","output":206}]}],"materials":[{"doubleSided":true,"name":"Atlas","pbrMetallicRoughness":{"baseColorTexture":{"index":0},"metallicFactor":0}}],"meshes":[{"name":"Cube.020","primitives":[{"attributes":{"POSITION":0,"NORMAL":1,"TEXCOORD_0":2,"JOINTS_0":3,"WEIGHTS_0":4},"indices":5,"material":0}]}],"textures":[{"sampler":0,"source":0}],"images":[{"uri":"evolved-goleling.png"}],"skins":[{"inverseBindMatrices":6,"joints":[12,10,1,0,5,4,3,2,9,8,7,6,11],"name":"CharacterArmature"}],"accessors":[{"bufferView":0,"componentType":5126,"count":3688,"max":[2.191018581390381,3.808109998703003,0.7560267448425293],"min":[-2.191018581390381,1.239808201789856,-1.430202841758728],"type":"VEC3"},{"bufferView":1,"componentType":5126,"count":3688,"type":"VEC3"},{"bufferView":2,"componentType":5126,"count":3688,"type":"VEC2"},{"bufferView":3,"componentType":5121,"count":3688,"type":"VEC4"},{"bufferView":4,"componentType":5126,"count":3688,"type":"VEC4"},{"bufferView":5,"componentType":5123,"count":17592,"type":"SCALAR"},{"bufferView":7,"componentType":5126,"count":13,"type":"MAT4"},{"bufferView":8,"componentType":5126,"count":21,"max":[0.6666666666666666],"min":[0],"type":"SCALAR"},{"bufferView":9,"componentType":5126,"count":21,"type":"VEC3"},{"bufferView":10,"componentType":5126,"count":21,"type":"VEC4"},{"bufferView":11,"componentType":5126,"count":2,"max":[0.6666666666666666],"min":[0],"type":"SCALAR"},{"bufferView":12,"componentType":5126,"count":2,"type":"VEC3"},{"bufferView":13,"componentType":5126,"count":21,"type":"VEC4"},{"bufferView":14,"componentType":5126,"count":2,"type":"VEC3"},{"bufferView":15,"componentType":5126,"count":21,"type":"VEC4"},{"bufferView":16,"componentType":5126,"count":2,"type":"VEC3"},{"bufferView":17,"componentType":5126,"count":21,"type":"VEC4"},{"bufferView":18,"componentType":5126,"count":2,"type":"VEC3"},{"bufferView":19,"componentType":5126,"count":21,"type":"VEC4"},{"bufferView":20,"componentType":5126,"count":2,"type":"VEC3"},{"bufferView":21,"componentType":5126,"count":21,"type":"VEC4"},{"bufferView":22,"componentType":5126,"count":2,"type":"VEC3"},{"bufferView":23,"componentType":5126,"count":2,"type":"VEC4"},{"bufferView":24,"componentType":5126,"count":2,"type":"VEC3"},{"bufferView":25,"componentType":5126,"count":21,"type":"VEC4"},{"bufferView":26,"componentType":5126,"count":2,"type":"VEC3"},{"bufferView":27,"componentType":5126,"count":21,"type":"VEC4"},{"bufferView":28,"componentType":5126,"count":2,"type":"VEC3"},{"bufferView":29,"componentType":5126,"count":21,"type":"VEC4"},{"bufferView":30,"componentType":5126,"count":2,"type":"VEC3"},{"bufferView":31,"componentType":5126,"count":2,"type":"VEC4"},{"bufferView":32,"componentType":5126,"count":21,"type":"VEC3"},{"bufferView":33,"componentType":5126,"count":21,"type":"VEC4"},{"bufferView":34,"componentType":5126,"count":26,"max":[0.8333333333333334],"min":[0],"type":"SCALAR"},{"bufferView":35,"componentType":5126,"count":26,"type":"VEC3"},{"bufferView":36,"componentType":5126,"count":2,"max":[0.8333333333333334],"min":[0],"type":"SCALAR"},{"bufferView":37,"componentType":5126,"count":2,"type":"VEC4"},{"bufferView":38,"componentType":5126,"count":2,"type":"VEC3"},{"bufferView":39,"componentType":5126,"count":2,"type":"VEC4"},{"bufferView":40,"componentType":5126,"count":2,"type":"VEC3"},{"bufferView":41,"componentType":5126,"count":26,"type":"VEC4"},{"bufferView":42,"componentType":5126,"count":2,"type":"VEC3"},{"bufferView":43,"componentType":5126,"count":26,"type":"VEC4"},{"bufferView":44,"componentType":5126,"count":2,"type":"VEC3"},{"bufferView":45,"componentType":5126,"count":26,"type":"VEC4"},{"bufferView":46,"componentType":5126,"count":2,"type":"VEC3"},{"bufferView":47,"componentType":5126,"count":26,"type":"VEC4"},{"bufferView":48,"componentType":5126,"count":2,"type":"VEC3"},{"bufferView":49,"componentType":5126,"count":2,"type":"VEC4"},{"bufferView":50,"componentType":5126,"count":2,"type":"VEC3"},{"bufferView":51,"componentType":5126,"count":26,"type":"VEC4"},{"bufferView":52,"componentType":5126,"count":2,"type":"VEC3"},{"bufferView":53,"componentType":5126,"count":26,"type":"VEC4"},{"bufferView":54,"componentType":5126,"count":2,"type":"VEC3"},{"bufferView":55,"componentType":5126,"count":26,"type":"VEC4"},{"bufferView":56,"componentType":5126,"count":2,"type":"VEC3"},{"bufferView":57,"componentType":5126,"count":2,"type":"VEC4"},{"bufferView":58,"componentType":5126,"count":26,"type":"VEC3"},{"bufferView":59,"componentType":5126,"count":2,"type":"VEC4"},{"bufferView":60,"componentType":5126,"count":36,"max":[1.1666666666666667],"min":[0],"type":"SCALAR"},{"bufferView":61,"componentType":5126,"count":36,"type":"VEC3"},{"bufferView":62,"componentType":5126,"count":2,"max":[1.1666666666666667],"min":[0],"type":"SCALAR"},{"bufferView":63,"componentType":5126,"count":2,"type":"VEC4"},{"bufferView":64,"componentType":5126,"count":2,"type":"VEC3"},{"bufferView":65,"componentType":5126,"count":2,"type":"VEC4"},{"bufferView":66,"componentType":5126,"count":2,"type":"VEC3"},{"bufferView":67,"componentType":5126,"count":36,"type":"VEC4"},{"bufferView":68,"componentType":5126,"count":2,"type":"VEC3"},{"bufferView":69,"componentType":5126,"count":36,"type":"VEC4"},{"bufferView":70,"componentType":5126,"count":2,"type":"VEC3"},{"bufferView":71,"componentType":5126,"count":36,"type":"VEC4"},{"bufferView":72,"componentType":5126,"count":2,"type":"VEC3"},{"bufferView":73,"componentType":5126,"count":36,"type":"VEC4"},{"bufferView":74,"componentType":5126,"count":2,"type":"VEC3"},{"bufferView":75,"componentType":5126,"count":2,"type":"VEC4"},{"bufferView":76,"componentType":5126,"count":2,"type":"VEC3"},{"bufferView":77,"componentType":5126,"count":36,"type":"VEC4"},{"bufferView":78,"componentType":5126,"count":2,"type":"VEC3"},{"bufferView":79,"componentType":5126,"count":36,"type":"VEC4"},{"bufferView":80,"componentType":5126,"count":2,"type":"VEC3"},{"bufferView":81,"componentType":5126,"count":36,"type":"VEC4"},{"bufferView":82,"componentType":5126,"count":2,"type":"VEC3"},{"bufferView":83,"componentType":5126,"count":2,"type":"VEC4"},{"bufferView":84,"componentType":5126,"count":36,"type":"VEC3"},{"bufferView":85,"componentType":5126,"count":2,"type":"VEC4"},{"bufferView":86,"componentType":5126,"count":36,"type":"VEC3"},{"bufferView":87,"componentType":5126,"count":36,"type":"VEC4"},{"bufferView":88,"componentType":5126,"count":2,"type":"VEC3"},{"bufferView":89,"componentType":5126,"count":2,"type":"VEC4"},{"bufferView":90,"componentType":5126,"count":2,"type":"VEC3"},{"bufferView":91,"componentType":5126,"count":36,"type":"VEC4"},{"bufferView":92,"componentType":5126,"count":2,"type":"VEC3"},{"bufferView":93,"componentType":5126,"count":36,"type":"VEC4"},{"bufferView":94,"componentType":5126,"count":2,"type":"VEC3"},{"bufferView":95,"componentType":5126,"count":36,"type":"VEC4"},{"bufferView":96,"componentType":5126,"count":2,"type":"VEC3"},{"bufferView":97,"componentType":5126,"count":36,"type":"VEC4"},{"bufferView":98,"componentType":5126,"count":2,"type":"VEC3"},{"bufferView":99,"componentType":5126,"count":2,"type":"VEC4"},{"bufferView":100,"componentType":5126,"count":2,"type":"VEC3"},{"bufferView":101,"componentType":5126,"count":36,"type":"VEC4"},{"bufferView":102,"componentType":5126,"count":2,"type":"VEC3"},{"bufferView":103,"componentType":5126,"count":36,"type":"VEC4"},{"bufferView":104,"componentType":5126,"count":2,"type":"VEC3"},{"bufferView":105,"componentType":5126,"count":36,"type":"VEC4"},{"bufferView":106,"componentType":5126,"count":2,"type":"VEC3"},{"bufferView":107,"componentType":5126,"count":2,"type":"VEC4"},{"bufferView":108,"componentType":5126,"count":36,"type":"VEC3"},{"bufferView":109,"componentType":5126,"count":36,"type":"VEC4"},{"bufferView":110,"componentType":5126,"count":15,"max":[0.4666666666666667],"min":[0],"type":"SCALAR"},{"bufferView":111,"componentType":5126,"count":15,"type":"VEC3"},{"bufferView":112,"componentType":5126,"count":15,"type":"VEC4"},{"bufferView":113,"componentType":5126,"count":2,"max":[0.4666666666666667],"min":[0],"type":"SCALAR"},{"bufferView":114,"componentType":5126,"count":2,"type":"VEC3"},{"bufferView":115,"componentType":5126,"count":15,"type":"VEC4"},{"bufferView":116,"componentType":5126,"count":2,"type":"VEC3"},{"bufferView":117,"componentType":5126,"count":15,"type":"VEC4"},{"bufferView":118,"componentType":5126,"count":2,"type":"VEC3"},{"bufferView":119,"componentType":5126,"count":15,"type":"VEC4"},{"bufferView":120,"componentType":5126,"count":2,"type":"VEC3"},{"bufferView":121,"componentType":5126,"count":15,"type":"VEC4"},{"bufferView":122,"componentType":5126,"count":2,"type":"VEC3"},{"bufferView":123,"componentType":5126,"count":15,"type":"VEC4"},{"bufferView":124,"componentType":5126,"count":2,"type":"VEC3"},{"bufferView":125,"componentType":5126,"count":2,"type":"VEC4"},{"bufferView":126,"componentType":5126,"count":2,"type":"VEC3"},{"bufferView":127,"componentType":5126,"count":15,"type":"VEC4"},{"bufferView":128,"componentType":5126,"count":2,"type":"VEC3"},{"bufferView":129,"componentType":5126,"count":15,"type":"VEC4"},{"bufferView":130,"componentType":5126,"count":2,"type":"VEC3"},{"bufferView":131,"componentType":5126,"count":15,"type":"VEC4"},{"bufferView":132,"componentType":5126,"count":2,"type":"VEC3"},{"bufferView":133,"componentType":5126,"count":2,"type":"VEC4"},{"bufferView":134,"componentType":5126,"count":15,"type":"VEC3"},{"bufferView":135,"componentType":5126,"count":2,"type":"VEC4"},{"bufferView":136,"componentType":5126,"count":36,"type":"VEC3"},{"bufferView":137,"componentType":5126,"count":2,"type":"VEC4"},{"bufferView":138,"componentType":5126,"count":2,"type":"VEC3"},{"bufferView":139,"componentType":5126,"count":36,"type":"VEC4"},{"bufferView":140,"componentType":5126,"count":2,"type":"VEC3"},{"bufferView":141,"componentType":5126,"count":36,"type":"VEC4"},{"bufferView":142,"componentType":5126,"count":2,"type":"VEC3"},{"bufferView":143,"componentType":5126,"count":36,"type":"VEC4"},{"bufferView":144,"componentType":5126,"count":2,"type":"VEC3"},{"bufferView":145,"componentType":5126,"count":36,"type":"VEC4"},{"bufferView":146,"componentType":5126,"count":2,"type":"VEC3"},{"bufferView":147,"componentType":5126,"count":36,"type":"VEC4"},{"bufferView":148,"componentType":5126,"count":2,"type":"VEC3"},{"bufferView":149,"componentType":5126,"count":2,"type":"VEC4"},{"bufferView":150,"componentType":5126,"count":2,"type":"VEC3"},{"bufferView":151,"componentType":5126,"count":36,"type":"VEC4"},{"bufferView":152,"componentType":5126,"count":2,"type":"VEC3"},{"bufferView":153,"componentType":5126,"count":36,"type":"VEC4"},{"bufferView":154,"componentType":5126,"count":2,"type":"VEC3"},{"bufferView":155,"componentType":5126,"count":36,"type":"VEC4"},{"bufferView":156,"componentType":5126,"count":2,"type":"VEC3"},{"bufferView":157,"componentType":5126,"count":2,"type":"VEC4"},{"bufferView":158,"componentType":5126,"count":36,"type":"VEC3"},{"bufferView":159,"componentType":5126,"count":2,"type":"VEC4"},{"bufferView":160,"componentType":5126,"count":36,"type":"VEC3"},{"bufferView":161,"componentType":5126,"count":36,"type":"VEC4"},{"bufferView":162,"componentType":5126,"count":2,"type":"VEC3"},{"bufferView":163,"componentType":5126,"count":2,"type":"VEC4"},{"bufferView":164,"componentType":5126,"count":2,"type":"VEC3"},{"bufferView":165,"componentType":5126,"count":36,"type":"VEC4"},{"bufferView":166,"componentType":5126,"count":2,"type":"VEC3"},{"bufferView":167,"componentType":5126,"count":36,"type":"VEC4"},{"bufferView":168,"componentType":5126,"count":2,"type":"VEC3"},{"bufferView":169,"componentType":5126,"count":36,"type":"VEC4"},{"bufferView":170,"componentType":5126,"count":2,"type":"VEC3"},{"bufferView":171,"componentType":5126,"count":36,"type":"VEC4"},{"bufferView":172,"componentType":5126,"count":2,"type":"VEC3"},{"bufferView":173,"componentType":5126,"count":2,"type":"VEC4"},{"bufferView":174,"componentType":5126,"count":2,"type":"VEC3"},{"bufferView":175,"componentType":5126,"count":36,"type":"VEC4"},{"bufferView":176,"componentType":5126,"count":2,"type":"VEC3"},{"bufferView":177,"componentType":5126,"count":36,"type":"VEC4"},{"bufferView":178,"componentType":5126,"count":2,"type":"VEC3"},{"bufferView":179,"componentType":5126,"count":36,"type":"VEC4"},{"bufferView":180,"componentType":5126,"count":2,"type":"VEC3"},{"bufferView":181,"componentType":5126,"count":2,"type":"VEC4"},{"bufferView":182,"componentType":5126,"count":36,"type":"VEC3"},{"bufferView":183,"componentType":5126,"count":36,"type":"VEC4"},{"bufferView":184,"componentType":5126,"count":36,"type":"VEC3"},{"bufferView":185,"componentType":5126,"count":2,"type":"VEC4"},{"bufferView":186,"componentType":5126,"count":2,"type":"VEC3"},{"bufferView":187,"componentType":5126,"count":36,"type":"VEC4"},{"bufferView":188,"componentType":5126,"count":2,"type":"VEC3"},{"bufferView":189,"componentType":5126,"count":36,"type":"VEC4"},{"bufferView":190,"componentType":5126,"count":2,"type":"VEC3"},{"bufferView":191,"componentType":5126,"count":36,"type":"VEC4"},{"bufferView":192,"componentType":5126,"count":2,"type":"VEC3"},{"bufferView":193,"componentType":5126,"count":36,"type":"VEC4"},{"bufferView":194,"componentType":5126,"count":2,"type":"VEC3"},{"bufferView":195,"componentType":5126,"count":36,"type":"VEC4"},{"bufferView":196,"componentType":5126,"count":2,"type":"VEC3"},{"bufferView":197,"componentType":5126,"count":2,"type":"VEC4"},{"bufferView":198,"componentType":5126,"count":2,"type":"VEC3"},{"bufferView":199,"componentType":5126,"count":36,"type":"VEC4"},{"bufferView":200,"componentType":5126,"count":2,"type":"VEC3"},{"bufferView":201,"componentType":5126,"count":36,"type":"VEC4"},{"bufferView":202,"componentType":5126,"count":2,"type":"VEC3"},{"bufferView":203,"componentType":5126,"count":36,"type":"VEC4"},{"bufferView":204,"componentType":5126,"count":2,"type":"VEC3"},{"bufferView":205,"componentType":5126,"count":2,"type":"VEC4"},{"bufferView":206,"componentType":5126,"count":36,"type":"VEC3"},{"bufferView":207,"componentType":5126,"count":2,"type":"VEC4"}],"bufferViews":[{"buffer":0,"byteLength":44256,"byteOffset":0},{"buffer":0,"byteLength":44256,"byteOffset":44256},{"buffer":0,"byteLength":29504,"byteOffset":88512},{"buffer":0,"byteLength":14752,"byteOffset":118016},{"buffer":0,"byteLength":59008,"byteOffset":132768},{"buffer":0,"byteLength":35184,"byteOffset":191776},{"buffer":0,"byteLength":927,"byteOffset":226960},{"buffer":0,"byteLength":832,"byteOffset":227888},{"buffer":0,"byteLength":84,"byteOffset":228720},{"buffer":0,"byteLength":252,"byteOffset":228804},{"buffer":0,"byteLength":336,"byteOffset":229056},{"buffer":0,"byteLength":8,"byteOffset":229392},{"buffer":0,"byteLength":24,"byteOffset":229400},{"buffer":0,"byteLength":336,"byteOffset":229424},{"buffer":0,"byteLength":24,"byteOffset":229760},{"buffer":0,"byteLength":336,"byteOffset":229784},{"buffer":0,"byteLength":24,"byteOffset":230120},{"buffer":0,"byteLength":336,"byteOffset":230144},{"buffer":0,"byteLength":24,"byteOffset":230480},{"buffer":0,"byteLength":336,"byteOffset":230504},{"buffer":0,"byteLength":24,"byteOffset":230840},{"buffer":0,"byteLength":336,"byteOffset":230864},{"buffer":0,"byteLength":24,"byteOffset":231200},{"buffer":0,"byteLength":32,"byteOffset":231224},{"buffer":0,"byteLength":24,"byteOffset":231256},{"buffer":0,"byteLength":336,"byteOffset":231280},{"buffer":0,"byteLength":24,"byteOffset":231616},{"buffer":0,"byteLength":336,"byteOffset":231640},{"buffer":0,"byteLength":24,"byteOffset":231976},{"buffer":0,"byteLength":336,"byteOffset":232000},{"buffer":0,"byteLength":24,"byteOffset":232336},{"buffer":0,"byteLength":32,"byteOffset":232360},{"buffer":0,"byteLength":252,"byteOffset":232392},{"buffer":0,"byteLength":336,"byteOffset":232644},{"buffer":0,"byteLength":104,"byteOffset":232980},{"buffer":0,"byteLength":312,"byteOffset":233084},{"buffer":0,"byteLength":8,"byteOffset":233396},{"buffer":0,"byteLength":32,"byteOffset":233404},{"buffer":0,"byteLength":24,"byteOffset":233436},{"buffer":0,"byteLength":32,"byteOffset":233460},{"buffer":0,"byteLength":24,"byteOffset":233492},{"buffer":0,"byteLength":416,"byteOffset":233516},{"buffer":0,"byteLength":24,"byteOffset":233932},{"buffer":0,"byteLength":416,"byteOffset":233956},{"buffer":0,"byteLength":24,"byteOffset":234372},{"buffer":0,"byteLength":416,"byteOffset":234396},{"buffer":0,"byteLength":24,"byteOffset":234812},{"buffer":0,"byteLength":416,"byteOffset":234836},{"buffer":0,"byteLength":24,"byteOffset":235252},{"buffer":0,"byteLength":32,"byteOffset":235276},{"buffer":0,"byteLength":24,"byteOffset":235308},{"buffer":0,"byteLength":416,"byteOffset":235332},{"buffer":0,"byteLength":24,"byteOffset":235748},{"buffer":0,"byteLength":416,"byteOffset":235772},{"buffer":0,"byteLength":24,"byteOffset":236188},{"buffer":0,"byteLength":416,"byteOffset":236212},{"buffer":0,"byteLength":24,"byteOffset":236628},{"buffer":0,"byteLength":32,"byteOffset":236652},{"buffer":0,"byteLength":312,"byteOffset":236684},{"buffer":0,"byteLength":32,"byteOffset":236996},{"buffer":0,"byteLength":144,"byteOffset":237028},{"buffer":0,"byteLength":432,"byteOffset":237172},{"buffer":0,"byteLength":8,"byteOffset":237604},{"buffer":0,"byteLength":32,"byteOffset":237612},{"buffer":0,"byteLength":24,"byteOffset":237644},{"buffer":0,"byteLength":32,"byteOffset":237668},{"buffer":0,"byteLength":24,"byteOffset":237700},{"buffer":0,"byteLength":576,"byteOffset":237724},{"buffer":0,"byteLength":24,"byteOffset":238300},{"buffer":0,"byteLength":576,"byteOffset":238324},{"buffer":0,"byteLength":24,"byteOffset":238900},{"buffer":0,"byteLength":576,"byteOffset":238924},{"buffer":0,"byteLength":24,"byteOffset":239500},{"buffer":0,"byteLength":576,"byteOffset":239524},{"buffer":0,"byteLength":24,"byteOffset":240100},{"buffer":0,"byteLength":32,"byteOffset":240124},{"buffer":0,"byteLength":24,"byteOffset":240156},{"buffer":0,"byteLength":576,"byteOffset":240180},{"buffer":0,"byteLength":24,"byteOffset":240756},{"buffer":0,"byteLength":576,"byteOffset":240780},{"buffer":0,"byteLength":24,"byteOffset":241356},{"buffer":0,"byteLength":576,"byteOffset":241380},{"buffer":0,"byteLength":24,"byteOffset":241956},{"buffer":0,"byteLength":32,"byteOffset":241980},{"buffer":0,"byteLength":432,"byteOffset":242012},{"buffer":0,"byteLength":32,"byteOffset":242444},{"buffer":0,"byteLength":432,"byteOffset":242476},{"buffer":0,"byteLength":576,"byteOffset":242908},{"buffer":0,"byteLength":24,"byteOffset":243484},{"buffer":0,"byteLength":32,"byteOffset":243508},{"buffer":0,"byteLength":24,"byteOffset":243540},{"buffer":0,"byteLength":576,"byteOffset":243564},{"buffer":0,"byteLength":24,"byteOffset":244140},{"buffer":0,"byteLength":576,"byteOffset":244164},{"buffer":0,"byteLength":24,"byteOffset":244740},{"buffer":0,"byteLength":576,"byteOffset":244764},{"buffer":0,"byteLength":24,"byteOffset":245340},{"buffer":0,"byteLength":576,"byteOffset":245364},{"buffer":0,"byteLength":24,"byteOffset":245940},{"buffer":0,"byteLength":32,"byteOffset":245964},{"buffer":0,"byteLength":24,"byteOffset":245996},{"buffer":0,"byteLength":576,"byteOffset":246020},{"buffer":0,"byteLength":24,"byteOffset":246596},{"buffer":0,"byteLength":576,"byteOffset":246620},{"buffer":0,"byteLength":24,"byteOffset":247196},{"buffer":0,"byteLength":576,"byteOffset":247220},{"buffer":0,"byteLength":24,"byteOffset":247796},{"buffer":0,"byteLength":32,"byteOffset":247820},{"buffer":0,"byteLength":432,"byteOffset":247852},{"buffer":0,"byteLength":576,"byteOffset":248284},{"buffer":0,"byteLength":60,"byteOffset":248860},{"buffer":0,"byteLength":180,"byteOffset":248920},{"buffer":0,"byteLength":240,"byteOffset":249100},{"buffer":0,"byteLength":8,"byteOffset":249340},{"buffer":0,"byteLength":24,"byteOffset":249348},{"buffer":0,"byteLength":240,"byteOffset":249372},{"buffer":0,"byteLength":24,"byteOffset":249612},{"buffer":0,"byteLength":240,"byteOffset":249636},{"buffer":0,"byteLength":24,"byteOffset":249876},{"buffer":0,"byteLength":240,"byteOffset":249900},{"buffer":0,"byteLength":24,"byteOffset":250140},{"buffer":0,"byteLength":240,"byteOffset":250164},{"buffer":0,"byteLength":24,"byteOffset":250404},{"buffer":0,"byteLength":240,"byteOffset":250428},{"buffer":0,"byteLength":24,"byteOffset":250668},{"buffer":0,"byteLength":32,"byteOffset":250692},{"buffer":0,"byteLength":24,"byteOffset":250724},{"buffer":0,"byteLength":240,"byteOffset":250748},{"buffer":0,"byteLength":24,"byteOffset":250988},{"buffer":0,"byteLength":240,"byteOffset":251012},{"buffer":0,"byteLength":24,"byteOffset":251252},{"buffer":0,"byteLength":240,"byteOffset":251276},{"buffer":0,"byteLength":24,"byteOffset":251516},{"buffer":0,"byteLength":32,"byteOffset":251540},{"buffer":0,"byteLength":180,"byteOffset":251572},{"buffer":0,"byteLength":32,"byteOffset":251752},{"buffer":0,"byteLength":432,"byteOffset":251784},{"buffer":0,"byteLength":32,"byteOffset":252216},{"buffer":0,"byteLength":24,"byteOffset":252248},{"buffer":0,"byteLength":576,"byteOffset":252272},{"buffer":0,"byteLength":24,"byteOffset":252848},{"buffer":0,"byteLength":576,"byteOffset":252872},{"buffer":0,"byteLength":24,"byteOffset":253448},{"buffer":0,"byteLength":576,"byteOffset":253472},{"buffer":0,"byteLength":24,"byteOffset":254048},{"buffer":0,"byteLength":576,"byteOffset":254072},{"buffer":0,"byteLength":24,"byteOffset":254648},{"buffer":0,"byteLength":576,"byteOffset":254672},{"buffer":0,"byteLength":24,"byteOffset":255248},{"buffer":0,"byteLength":32,"byteOffset":255272},{"buffer":0,"byteLength":24,"byteOffset":255304},{"buffer":0,"byteLength":576,"byteOffset":255328},{"buffer":0,"byteLength":24,"byteOffset":255904},{"buffer":0,"byteLength":576,"byteOffset":255928},{"buffer":0,"byteLength":24,"byteOffset":256504},{"buffer":0,"byteLength":576,"byteOffset":256528},{"buffer":0,"byteLength":24,"byteOffset":257104},{"buffer":0,"byteLength":32,"byteOffset":257128},{"buffer":0,"byteLength":432,"byteOffset":257160},{"buffer":0,"byteLength":32,"byteOffset":257592},{"buffer":0,"byteLength":432,"byteOffset":257624},{"buffer":0,"byteLength":576,"byteOffset":258056},{"buffer":0,"byteLength":24,"byteOffset":258632},{"buffer":0,"byteLength":32,"byteOffset":258656},{"buffer":0,"byteLength":24,"byteOffset":258688},{"buffer":0,"byteLength":576,"byteOffset":258712},{"buffer":0,"byteLength":24,"byteOffset":259288},{"buffer":0,"byteLength":576,"byteOffset":259312},{"buffer":0,"byteLength":24,"byteOffset":259888},{"buffer":0,"byteLength":576,"byteOffset":259912},{"buffer":0,"byteLength":24,"byteOffset":260488},{"buffer":0,"byteLength":576,"byteOffset":260512},{"buffer":0,"byteLength":24,"byteOffset":261088},{"buffer":0,"byteLength":32,"byteOffset":261112},{"buffer":0,"byteLength":24,"byteOffset":261144},{"buffer":0,"byteLength":576,"byteOffset":261168},{"buffer":0,"byteLength":24,"byteOffset":261744},{"buffer":0,"byteLength":576,"byteOffset":261768},{"buffer":0,"byteLength":24,"byteOffset":262344},{"buffer":0,"byteLength":576,"byteOffset":262368},{"buffer":0,"byteLength":24,"byteOffset":262944},{"buffer":0,"byteLength":32,"byteOffset":262968},{"buffer":0,"byteLength":432,"byteOffset":263000},{"buffer":0,"byteLength":576,"byteOffset":263432},{"buffer":0,"byteLength":432,"byteOffset":264008},{"buffer":0,"byteLength":32,"byteOffset":264440},{"buffer":0,"byteLength":24,"byteOffset":264472},{"buffer":0,"byteLength":576,"byteOffset":264496},{"buffer":0,"byteLength":24,"byteOffset":265072},{"buffer":0,"byteLength":576,"byteOffset":265096},{"buffer":0,"byteLength":24,"byteOffset":265672},{"buffer":0,"byteLength":576,"byteOffset":265696},{"buffer":0,"byteLength":24,"byteOffset":266272},{"buffer":0,"byteLength":576,"byteOffset":266296},{"buffer":0,"byteLength":24,"byteOffset":266872},{"buffer":0,"byteLength":576,"byteOffset":266896},{"buffer":0,"byteLength":24,"byteOffset":267472},{"buffer":0,"byteLength":32,"byteOffset":267496},{"buffer":0,"byteLength":24,"byteOffset":267528},{"buffer":0,"byteLength":576,"byteOffset":267552},{"buffer":0,"byteLength":24,"byteOffset":268128},{"buffer":0,"byteLength":576,"byteOffset":268152},{"buffer":0,"byteLength":24,"byteOffset":268728},{"buffer":0,"byteLength":576,"byteOffset":268752},{"buffer":0,"byteLength":24,"byteOffset":269328},{"buffer":0,"byteLength":32,"byteOffset":269352},{"buffer":0,"byteLength":432,"byteOffset":269384},{"buffer":0,"byteLength":32,"byteOffset":269816}],"samplers":[{"magFilter":9729,"minFilter":9987}],"buffers":[{"byteLength":269848,"uri":"evolved-goleling.bin"}]}